<svg xmlns="http://www.w3.org/2000/svg" enable-background="new 0 0 1080 1080" viewBox="0 0 1080 1080" id="upload-image-ui"><path fill="#ffbe55" d="M228.12 823.32s-38.07-80.83 25.29-130.82-52.85-100.74-10.91-162.83S427 517.91 423.41 402.89c-3.59-115.01 116.21-146.16 155.75-111.42 39.54 34.74 44.97 204.09 158.47 185.91S957.74 699.18 866.68 823l-638.56.32z" opacity=".1"></path><path fill="#2a94f4" d="M291.53 353h534.88v325.45H291.53z" opacity=".33"></path><path fill="#f7f7f7" d="M318.66 377.37h480.61v276.7H318.66z"></path><path fill="#2a94f4" d="M318.66 377.37h480.61v4.51H318.66z" opacity=".61"></path><path fill="#fa968c" d="M269.56 762.91s-12.29 14.15-14.55 16.4c-1.86 1.86-4.51 2.54-7.04 3.25-.81.23-1.87 1.06-2.76 1.76-.72.56-1.05 1.44-1.03 2.35.29 15.92 14.15 27.09 14.89 26.15 1.33-1.68.32-6.35-2.33-9.42-2.67-3.1-3.31-7.46-2.12-11.37.95-3.11 2.68-5.92 5.03-8.17l10.69-10-.78-10.95zM395.19 783.03l9.78 16.34a24.35 24.35 0 0 1 3.1 16.64 5.317 5.317 0 0 0 5.11 6.24c10.53.26 30.89.64 31.48-.32 2.99-4.88-9.89-7.07-20.01-10.5-6.82-2.31-15.22-20.78-20.54-35.32l-7.98 5.05c-.62.42-.97 1.13-.94 1.87z"></path><path fill="#0b4870" d="M424.45 817.06c4.32 0 8.73-.99 12.81-1.8.47-.09.95-.06 1.4.1 4.72 1.67 7.58 3.98 5.99 6.57-.64 1.04-24.6.5-33.95.25-1.96-.05-3.39-1.83-3.05-3.76l.61-3.51c5.29 1.35 10.71 2.15 16.19 2.15zM360.21 598.53c-10.81-2.16-23.72 6.69-26.5 20.6-1.6 7.99-3.96 37.78-3.62 62.08.13 9.33-4.35 18.3-12.32 23.15-1.3.79-2.49 1.66-3.52 2.6-5.33 4.87-30.14 35.96-45.69 57.06-.49 3.3 0 7.86 1.85 10.03 19.9-15.59 53.64-44.95 59.32-50.13 3.15-2.88 6.67-6.25 9.54-9.56 12.22-8.19 32.07-70.74 34.65-83.65 2.77-13.91-2.9-30.01-13.71-32.18z"></path><ellipse cx="353.46" cy="508.33" fill="#0b4870" rx="16.81" ry="21.69"></ellipse><path fill="#0b4870" d="M349.43 510.57c-.27-12.01-9.99-22.1-21.98-22.78-10.64-.61-19.82 5.91-23.26 15.21-1.2 3.26-4.4 5.38-7.88 5.33-1.44-.02-2.93.11-4.44.42-8.79 1.8-15.61 9.22-16.53 18.14-.83 8.05 2.93 15.27 8.98 19.39 2.58 1.76 4.05 4.67 4.48 7.76 1.98 14.31 15.05 24.82 29.95 23.19 12.75-1.4 22.95-11.89 24.03-24.66.67-7.84-2.03-15.03-6.76-20.36 8.08-3.82 13.62-12.08 13.41-21.64zM353.46 479.53s9.46 5.95 8.31 13.97c0 0 5.05-3.58 6.2-15.9.79-8.54-14.51 1.93-14.51 1.93z"></path><path fill="#fab9af" d="M372.78 528.4c-.13 3.99.15 8.05.79 12 .62 3.94 1.66 7.83 3.17 11.2.75 1.68 1.62 3.22 2.56 4.4.94 1.2 1.9 1.9 2.53 2.14.33.13.61.19 1.01.17.39-.03.9-.14 1.48-.42 1.17-.58 2.55-1.64 3.81-3.02 2.56-2.75 4.82-6.33 6.79-10.08 1.99-3.76 3.75-7.74 5.39-11.79 1.64-4.06 3.11-8.21 4.52-12.4 1.41-4.19 2.73-8.43 3.97-12.7v-.01a2.006 2.006 0 0 1 2.49-1.36c.98.29 1.58 1.26 1.42 2.25-1.44 8.87-3.16 17.73-5.63 26.52-1.22 4.4-2.63 8.77-4.41 13.1-1.78 4.33-3.85 8.64-6.96 12.8-1.58 2.06-3.48 4.12-6.16 5.81-1.35.83-2.95 1.54-4.75 1.93-1.79.39-3.78.39-5.62-.02-1.84-.4-3.49-1.17-4.9-2.07-1.4-.9-2.6-1.93-3.62-2.99-2.05-2.14-3.57-4.41-4.83-6.71-2.49-4.61-4.08-9.34-5.22-14.13-1.1-4.8-1.7-9.67-1.84-14.6v-.03a7.004 7.004 0 0 1 6.8-7.2 7.004 7.004 0 0 1 7.2 6.8c.02.12.02.28.01.41z"></path><path fill="#fab9af" d="M364.05 569.96c3.79-11.41 11.4-35.56 10.75-43.46a9.732 9.732 0 0 0-9.72-8.93h-32.93c-5.46 0-9.93 4.33-10.08 9.79-.28 9.54 4.12 31.24 6.59 42.6h35.39zM357.56 621.46c3.79 13.67 34.57 110.87 23.95 113.81-10.62 2.94-68.44-91.96-69.18-106.13-.7-13.44 7.09-28 17.71-30.94 10.63-2.93 23.74 9.59 27.52 23.26z"></path><path fill="#0b4870" d="M405.17 779.99c.39-.46.48-1.11.28-1.68-8.23-22.79-19.28-51.65-21.64-57.1-.27-.62-.55-1.23-.85-1.82-4.02-28.82-22.51-87.52-25.39-97.92-3.79-13.67-16.89-26.19-27.52-23.25-10.62 2.94-18.41 17.5-17.71 30.94.46 8.87 23.28 49.36 42.9 77.7 4.13 5.96 6.72 12.81 7.98 19.96.87 4.94 2.27 9.87 3.83 13.47 2.32 5.37 15.92 25.85 28.08 43.22.35.5.94.8 1.55.74 3.22-.35 6.27-1.65 8.49-4.26z"></path><path fill="#ffbe55" d="M324.89 584.42c1.7-4.78 2.22-9.9 1.5-14.93-1.66-11.67-4.56-33.65-4.3-42.98.14-4.99 4.23-8.94 9.22-8.94h4.88c1.86 4.31 5.8 7.64 11.93 7.64 6.12 0 10.06-3.33 11.92-7.64h4.58c-4.98 10.67-3.19 24.74 5.38 32.95-1.59 5.63-2.93 11.3-3.93 15.89a31.05 31.05 0 0 0 1.69 18.58c4.21 10.1 7.54 26.3 6.55 32.71-34.64 9.82-58.59-7.56-58.59-7.56l9.17-25.72z"></path><path fill="#fab9af" d="m353.46 519.84-14.93-1.57 4.72-16.34 9.66 1.19z"></path><path fill="#fa968c" d="m352.91 503.12-9.66-1.2-1.48 5.1c2.16 2.44 4.94 7.71 8.46 7.71 1.12 0 2.13-.31 3.05-.89l-.37-10.72z"></path><path fill="#fab9af" d="M353.25 511.02c-3.28 0-6.83-1.64-11.72-5.91-2.81-2.45-4.89-6.73-4.89-9.61v-15.97h24.59s1.85 8.48.05 16.9c-1.33 6.31-5.45 14.6-8.03 14.59z"></path><path fill="#fab9af" d="M340.82 492.48c0 3.12-1.49 5.64-3.33 5.64s-3.87-4.08-3.87-7.2 2.03-4.08 3.87-4.08c1.83-.01 3.33 2.52 3.33 5.64z"></path><path fill="#0b4870" d="M333.62 481.46c0-4.99 4.04-9.03 9.03-9.03h8.3c2.37 0 4.68-.62 6.7-1.77 2.93-1.66 6.63-1.11 8.63 1.6 2.16 2.93 3.09 6.85-2.38 10.48-2.72 1.81-6.7-.19-9.35.67-.16-.01-.31-.03-.48-.03h-7.32c-2.54 0-4.49 2.08-4.56 4.62a2.985 2.985 0 0 1-2.98 2.9h-.33l-1.17-3.75-4.08 5.51v-11.2z"></path><path fill="#fab9af" d="M414.42 499.1s1.72 8.49-.7 9.87c-2.42 1.38-4.29 1.87-6.44-1.57-2.15-3.44-3.45-9.19-3.54-12.79-.09-3.6 2.3-9.7 2.99-10.19 2.5-1.76 1.98 4.78 1.89 7.96-.1 3.18.11 6.78 1.65 6.4 1.54-.39 1.27-6.49 2.89-7.52 1.63-1.03 1.26 7.84 1.26 7.84z"></path><path fill="#0b4870" d="M359.41 479.25c-.82 3.65.39 5.64-11.57 11.34s-15.75 3.26-19.48 9.39c0 0 1.63-10.16 8.24-13.64 6.61-3.49 18.06-5.76 21.74-13.84-.01 0 1.63 4.25 1.07 6.75z"></path><path fill="#0b4870" d="M357.11 479.93s.45 12.29 11.19 18.19c0 0-4.73-9.29-4.41-15.36.32-6.08-7.49-7.03-6.78-2.83z"></path><path fill="#d3d3d3" d="M684 418.32h-2v-5h-5v-2h7zM684 555.56h-2v-11.44h2v11.44zm0-22.87h-2v-11.44h2v11.44zm0-22.87h-2v-11.44h2v11.44zm0-22.88h-2V475.5h2v11.44zm0-22.87h-2v-11.44h2v11.44zm0-22.88h-2v-11.44h2v11.44zM684 574h-7v-2h5v-5h2zM665 574h-12v-2h12v2zm-24 0h-12v-2h12v2zm-24 0h-12v-2h12v2zm-24 0h-12v-2h12v2zm-24 0h-12v-2h12v2zm-24 0h-12v-2h12v2zm-24 0h-12v-2h12v2zm-24 0h-12v-2h12v2zm-24 0h-12v-2h12v2zM449 574h-7v-7h2v5h5zM444 555.54h-2v-11.46h2v11.46zm0-22.92h-2v-11.46h2v11.46zm0-22.93h-2v-11.46h2v11.46zm0-22.92h-2v-11.46h2v11.46zm0-22.92h-2v-11.46h2v11.46zm0-22.93h-2v-11.46h2v11.46zM444 418h-2v-7l7 .01v2l-5-.01zM665 413.31l-12-.02v-2l12 .02v2zm-24-.03-12-.02v-2l12 .02v2zm-24-.03-12-.02v-2l12 .02v2zm-24-.04-12-.02v-2l12 .02v2zm-24-.03-12-.02v-2l12 .02v2zm-24-.04-12-.02v-2l12 .02v2zm-24-.03-12-.02v-2l12 .02v2zm-24-.03-12-.02v-2l12 .02v2zm-24-.04-12-.02v-2l12 .02v2z"></path><path fill="#0b4870" d="M239.05 789.4c-.4-1-.02-2.15.91-2.7.76-.45 2.8-1.71 4.33-2.65.67-.41 1.5.03 1.59.8.99 8.8 4.98 16.77 12.46 20.57 1.95 2.6 2.23 7.06 1.18 8.39-.25.31-3.75-.85-6.69-4.21-13.05-14.96-13.78-20.2-13.78-20.2z"></path><path fill="#ffbe55" d="M408 394h253v166H408z"></path><path fill="#f7f7f7" d="M416 404h236v120H416z" opacity=".78"></path><path fill="#ffbe55" d="M564 496c0 20.99-19.01 18-40 18s-36 2.99-36-18 17.01-38 38-38 38 17.01 38 38z"></path><path fill="#ffbe55" d="M416 524.17 476 473l53 51z"></path><path fill="#ffbe55" d="M486.74 524.17 574.49 448 652 523.92z"></path><path fill="#0e538c" d="M416 524h235.79v23H416z"></path><path fill="#fab9af" d="M451.11 555.84s-8.55-1.4-9.84 1.07c-1.29 2.47-1.71 4.36 1.82 6.37 3.52 2.01 9.31 3.1 12.92 3.05 3.6-.04 9.61-2.67 10.07-3.38 1.67-2.57-4.85-1.8-8.03-1.58-3.17.22-6.78.15-6.45-1.41.33-1.56 6.44-1.52 7.4-3.18.95-1.64-7.89-.94-7.89-.94z"></path><path fill="#fab9af" d="m335.43 526.32-.02-.12c0-.01.01.02.01.03l.02.07.07.26.18.61c.15.44.31.89.51 1.36.37.93.83 1.88 1.37 2.81 1.06 1.86 2.39 3.65 3.89 5.34 3.06 3.35 6.79 6.35 11.01 8.79 4.2 2.48 8.81 4.5 13.61 6.17 4.83 1.64 9.84 2.91 14.95 3.98 10.25 2.03 20.86 2.94 31.55 3.35l4.01.14 4.02.02 4.03.01c1.34.01 2.69-.06 4.03-.07 2.69-.07 5.39-.04 8.09-.2 2.69-.14 5.4-.24 8.1-.34h.05c1.11-.04 2.04.82 2.08 1.93.04 1.01-.67 1.87-1.63 2.05-5.37 1.01-10.77 1.95-16.21 2.69-2.71.44-5.45.68-8.19.97l-4.11.42-4.13.3-4.13.3-4.15.15c-1.39.04-2.77.1-4.16.11l-4.17-.03c-5.57 0-11.16-.42-16.77-1.01-5.61-.67-11.22-1.7-16.8-3.17-5.57-1.51-11.09-3.56-16.41-6.31-5.31-2.74-10.37-6.35-14.77-10.89-2.17-2.3-4.14-4.86-5.83-7.68-.84-1.41-1.61-2.89-2.27-4.47-.33-.78-.63-1.61-.91-2.45-.13-.45-.27-.87-.39-1.34-.13-.53-.22-.82-.37-1.74a7 7 0 0 1 5.91-7.94c3.82-.58 7.37 2.07 7.93 5.9z"></path><path fill="#ffbe55" d="M663.5 633h-201c-11.32 0-20.5-9.18-20.5-20.5s9.18-20.5 20.5-20.5h201c11.32 0 20.5 9.18 20.5 20.5s-9.18 20.5-20.5 20.5z"></path><path fill="#2a94f4" d="M759.7 419.04c-9.46-.01-18.92.24-28.37-.08-10.92-.37-19.2-5.6-24.91-14.91-3.6-5.87-4.88-12.39-3.93-19.03 1.78-12.44 10.54-22.65 23.87-25.52 1.89-.41 3.8-.62 5.71-.46 1.72.14 2.28-.45 2.21-2.2-.31-7.27 1.9-13.78 6.41-19.45 5.21-6.54 11.91-10.41 20.36-11.19 12.23-1.14 21.62 3.55 28.49 13.57.72 1.05 1.13 1.13 2.26.35 14.58-10.09 35.88-3.39 42.18 13.2.25.65.57 1.27.77 1.92 1.18 3.73 1.18 3.73 4.93 3.78 10.29.13 21.7 8.15 25.57 17.98.36.92.65 1.87.97 2.81-.97.08-1.44.7-1.8 1.53-1.34 3.05-3.47 5.61-5.69 7.98-6.81 7.29-15.27 12.12-24.42 15.84-4.18 1.7-8.49 2.92-12.86 4.05-5.69 1.47-11.4 2.77-17.16 3.88-6-5.95-12.01-11.89-17.99-17.86-.79-.79-1.3-1.3-2.36-.22-7.76 7.89-15.58 15.71-23.39 23.55-.28.16-.57.32-.85.48zm15.19-86.59c-.9-.9-1.63-.56-2.28-.67-11.35-2.07-20.47 2-27.73 10.5-1.94 2.27-3.48 5.08-4.52 7.89-1.27 3.42-1.86 7.1-1.5 10.83.15 1.56-.5 2.23-2.12 2.2-7.63-.14-14.13 2.61-19.71 7.75a28.54 28.54 0 0 0-7.63 11.57c-1.7 4.8-2.08 9.89-.97 14.92.54 2.45.85 5.08 2.64 7.11.75-.4.53-1 .53-1.5.05-3.06 0-6.11.44-9.17 1.19-8.33 4.5-15.46 11.75-20.09 5.24-3.34 11.17-4.87 17.44-4.57 2.03.1 2.79-.4 2.75-2.63-.14-8.48 1.9-16.41 7.32-23.09 3.56-4.4 8.16-7.47 13.76-8.98 3.14-.85 6.32-1.47 9.83-2.07z"></path><path fill="#2a94f4" d="M810.32 419.03c-.29-.15-.57-.29-.86-.44-1.73-1.83-3.45-3.67-5.18-5.5 5.76-1.11 11.48-2.41 17.16-3.88 4.37-1.13 8.68-2.35 12.86-4.05 9.16-3.72 17.62-8.55 24.42-15.84 2.22-2.38 4.35-4.93 5.69-7.98.37-.83.83-1.46 1.8-1.53 3.2 10.38 1.34 19.82-5.41 28.28-4.26 5.35-9.86 8.67-16.51 10.14-2.15.47-4.38.75-6.57.77-9.12.08-18.26.03-27.4.03z"></path><path fill="#f7f7f7" d="M802.19 425.99c0-.3.12-.41.41-.3-.14.11-.27.21-.41.3zM816.37 425.47c.06.02.12.04.16.08.03.02.02.08.03.12-.06-.07-.11-.15-.17-.22 0 .01-.02.02-.02.02z"></path><path fill="#ffbe55" d="M759.7 419.04c.28-.16.56-.32.85-.47.6.7 1.42.44 2.16.44 14.86.02 29.73.02 44.59 0 .74 0 1.55.25 2.17-.41.29.15.57.29.86.44l6.05 6.44.02-.02-13.79.24c-.29-.12-.42 0-.41.3-.06 2-.13 4-.19 5.99-1.45 1.42-1.2 3.45-1.66 5.17-2.11 7.84-5.72 14.71-11.53 20.47-1.75 1.73-4.1 2.63-5.59 4.6-4.61.04-9.22.04-13.82.14-1.82.04-1.43-1.17-1.43-2.18-.01-10.68-.06-21.37.04-32.05.02-2.03-.49-2.64-2.54-2.55-3.82.17-7.65.05-11.93.05 2.24-2.42 4.19-4.51 6.15-6.6z"></path><path fill="#ffbe55" d="M783.21 462.23c1.49-1.97 3.84-2.87 5.59-4.6 5.81-5.77 9.43-12.63 11.53-20.47.46-1.72.21-3.75 1.66-5.17v29.05c-.49 1.28-1.88.58-2.67 1.2-5.36 0-10.73-.01-16.11-.01z"></path><path fill="#ffbe55" d="M799.34 462.24c.79-.62 2.18.08 2.67-1.2.06 2.53-1.7.98-2.67 1.2zM804.28 413.09c1.73 1.83 3.45 3.67 5.18 5.5-.62.66-1.44.41-2.17.41-14.86.01-29.73.01-44.59 0-.73 0-1.55.26-2.16-.44 7.8-7.84 15.63-15.66 23.39-23.55 1.06-1.08 1.57-.57 2.36.22 5.99 5.97 11.99 11.91 17.99 17.86z"></path><path fill="#2a94f4" d="M774.89 332.45c-3.51.6-6.68 1.22-9.83 2.07-5.6 1.51-10.2 4.59-13.76 8.98-5.41 6.68-7.46 14.61-7.32 23.09.04 2.23-.72 2.72-2.75 2.63-6.27-.3-12.2 1.23-17.44 4.57-7.25 4.63-10.57 11.76-11.75 20.09-.44 3.06-.39 6.11-.44 9.17-.01.49.22 1.1-.53 1.5-1.79-2.03-2.1-4.65-2.64-7.11-1.11-5.03-.73-10.12.97-14.92 1.56-4.41 4.12-8.33 7.63-11.57 5.58-5.14 12.08-7.89 19.71-7.75 1.62.03 2.27-.64 2.12-2.2-.36-3.73.24-7.41 1.5-10.83 1.04-2.81 2.58-5.62 4.52-7.89 7.27-8.51 16.38-12.58 27.73-10.5.65.11 1.38-.23 2.28.67z"></path><path fill="#f7f7f7" d="M656 619H473c-3.31 0-6-2.69-6-6s2.69-6 6-6h183c3.31 0 6 2.69 6 6s-2.69 6-6 6zM896.5 850h-696c-7.46 0-13.5-6.04-13.5-13.5s6.04-13.5 13.5-13.5h696c7.46 0 13.5 6.04 13.5 13.5s-6.04 13.5-13.5 13.5z"></path><circle cx="781.68" cy="761.36" r="20.94" fill="#ffbe55"></circle><path fill="#2a94f4" d="M814.76 708.51h39.07v39.07h-39.07z" opacity=".4" transform="rotate(34.086 834.28 727.951)"></path><path fill="#0b4870" d="m852.68 678.83 38.86 4.01-4.01 38.87"></path></svg>